<?xml version="1.0" encoding="utf-8"?>
<!-- Generator: Adobe Illustrator 27.5.0, SVG Export Plug-In . SVG Version: 6.00 Build 0)  -->
<svg version="1.1" xmlns="http://www.w3.org/2000/svg" xmlns:xlink="http://www.w3.org/1999/xlink" x="0px" y="0px"
	 viewBox="0 0 500 500" style="enable-background:new 0 0 500 500;" xml:space="preserve">
<g id="BACKGROUND">
	<rect style="fill:#FFFFFF;" width="500" height="500"/>
</g>
<g id="OBJECTS">
	<g>
		
			<ellipse transform="matrix(0.0989 -0.9951 0.9951 0.0989 -45.6021 494.0889)" style="fill:#F6F6F6;" cx="250" cy="272.223" rx="113.084" ry="113.085"/>
		
			<ellipse transform="matrix(0.0827 -0.9966 0.9966 0.0827 -41.753 498.6394)" style="fill:#F6F6F6;" cx="250" cy="272.001" rx="113.084" ry="113.085"/>
		
			<ellipse transform="matrix(0.1039 -0.9946 0.9946 0.1039 -46.2759 492.1995)" style="fill:#F5F5F5;" cx="250" cy="271.78" rx="113.084" ry="113.085"/>
		
			<ellipse transform="matrix(0.0827 -0.9966 0.9966 0.0827 -41.3116 498.2332)" style="fill:#F5F5F5;" cx="250" cy="271.558" rx="113.084" ry="113.085"/>
		
			<ellipse transform="matrix(0.1039 -0.9946 0.9946 0.1039 -45.8354 491.8026)" style="fill:#F4F4F4;" cx="250" cy="271.337" rx="113.084" ry="113.085"/>
		
			<ellipse transform="matrix(0.0989 -0.9951 0.9951 0.0989 -44.5002 493.091)" style="fill:#F4F4F4;" cx="250" cy="271.115" rx="113.084" ry="113.085"/>
		
			<ellipse transform="matrix(0.0827 -0.9966 0.9966 0.0827 -40.6495 497.6237)" style="fill:#F3F3F4;" cx="250" cy="270.894" rx="113.084" ry="113.085"/>
		
			<ellipse transform="matrix(0.0989 -0.9951 0.9951 0.0989 -44.0595 492.6919)" style="fill:#F3F3F3;" cx="250" cy="270.673" rx="113.084" ry="113.085"/>
		
			<ellipse transform="matrix(0.0827 -0.9966 0.9966 0.0827 -40.2081 497.2175)" style="fill:#F2F2F3;" cx="250" cy="270.451" rx="113.084" ry="113.085"/>
		
			<ellipse transform="matrix(0.0754 -0.9972 0.9972 0.0754 -38.3036 499.151)" style="fill:#F2F2F2;" cx="250" cy="270.23" rx="113.084" ry="113.085"/>
		
			<ellipse transform="matrix(0.0827 -0.9966 0.9966 0.0827 -39.7667 496.8112)" style="fill:#F1F1F2;" cx="250" cy="270.008" rx="113.084" ry="113.085"/>
		
			<ellipse transform="matrix(0.0827 -0.9966 0.9966 0.0827 -39.546 496.608)" style="fill:#F1F1F2;" cx="250" cy="269.787" rx="113.084" ry="113.085"/>
		
			<ellipse transform="matrix(0.0827 -0.9966 0.9966 0.0827 -39.3253 496.405)" style="fill:#F0F0F1;" cx="250" cy="269.565" rx="113.084" ry="113.085"/>
		
			<ellipse transform="matrix(0.0827 -0.9966 0.9966 0.0827 -39.1046 496.2018)" style="fill:#F0F0F1;" cx="250" cy="269.344" rx="113.084" ry="113.085"/>
		
			<ellipse transform="matrix(0.0754 -0.9972 0.9972 0.0754 -37.1995 498.1271)" style="fill:#EFF0F0;" cx="250" cy="269.122" rx="113.084" ry="113.085"/>
		
			<ellipse transform="matrix(0.0827 -0.9966 0.9966 0.0827 -38.6632 495.7955)" style="fill:#EFEFF0;" cx="250" cy="268.901" rx="113.084" ry="113.085"/>
		
			<ellipse transform="matrix(0.0754 -0.9972 0.9972 0.0754 -36.7578 497.7176)" style="fill:#EEEFEF;" cx="250" cy="268.679" rx="113.084" ry="113.085"/>
		
			<ellipse transform="matrix(0.0587 -0.9983 0.9983 0.0587 -32.6736 502.2639)" style="fill:#EEEEEF;" cx="250" cy="268.458" rx="113.084" ry="113.085"/>
		
			<ellipse transform="matrix(0.0754 -0.9972 0.9972 0.0754 -36.3162 497.3081)" style="fill:#EEEEEF;" cx="250" cy="268.236" rx="113.084" ry="113.085"/>
		
			<ellipse transform="matrix(0.0587 -0.9983 0.9983 0.0587 -32.2315 501.847)" style="fill:#EDEDEE;" cx="250" cy="268.015" rx="113.084" ry="113.085"/>
		
			<ellipse transform="matrix(0.0754 -0.9972 0.9972 0.0754 -35.8746 496.8986)" style="fill:#EDEDEE;" cx="250" cy="267.794" rx="113.084" ry="113.085"/>
		
			<ellipse transform="matrix(0.0587 -0.9983 0.9983 0.0587 -31.7893 501.4301)" style="fill:#ECECED;" cx="250" cy="267.572" rx="113.084" ry="113.085"/>
		
			<ellipse transform="matrix(0.0587 -0.9983 0.9983 0.0587 -31.5682 501.2216)" style="fill:#ECECED;" cx="250" cy="267.351" rx="113.084" ry="113.085"/>
		
			<ellipse transform="matrix(0.0587 -0.9983 0.9983 0.0587 -31.3472 501.0132)" style="fill:#EBEBED;" cx="250" cy="267.129" rx="113.084" ry="113.085"/>
		
			<ellipse transform="matrix(0.0587 -0.9983 0.9983 0.0587 -31.1261 500.8047)" style="fill:#EBEBEC;" cx="250" cy="266.908" rx="113.084" ry="113.085"/>
		
			<ellipse transform="matrix(0.0484 -0.9988 0.9988 0.0484 -28.4724 503.4871)" style="fill:#EAEBEC;" cx="250" cy="266.686" rx="113.084" ry="113.085"/>
		
			<ellipse transform="matrix(0.0587 -0.9983 0.9983 0.0587 -30.6839 500.3878)" style="fill:#EAEAEB;" cx="250" cy="266.465" rx="113.084" ry="113.085"/>
		
			<ellipse transform="matrix(0.0484 -0.9988 0.9988 0.0484 -28.03 503.0657)" style="fill:#E9EAEB;" cx="250" cy="266.243" rx="113.084" ry="113.085"/>
		
			<ellipse transform="matrix(0.0587 -0.9983 0.9983 0.0587 -30.2418 499.9709)" style="fill:#E9E9EB;" cx="250" cy="266.022" rx="113.084" ry="113.085"/>
		
			<ellipse transform="matrix(0.0484 -0.9988 0.9988 0.0484 -27.5876 502.6442)" style="fill:#E8E9EA;" cx="250" cy="265.8" rx="113.084" ry="113.085"/>
		
			<ellipse transform="matrix(0.0313 -0.9995 0.9995 0.0313 -23.2774 507.1398)" style="fill:#E8E8EA;" cx="250" cy="265.579" rx="113.084" ry="113.085"/>
		
			<ellipse transform="matrix(0.0587 -0.9983 0.9983 0.0587 -29.5786 499.3456)" style="fill:#E7E8E9;" cx="250" cy="265.358" rx="113.084" ry="113.085"/>
		
			<ellipse transform="matrix(0.0313 -0.9995 0.9995 0.0313 -22.8347 506.7107)" style="fill:#E7E7E9;" cx="250" cy="265.136" rx="113.084" ry="113.085"/>
		
			<ellipse transform="matrix(0.0313 -0.9995 0.9995 0.0313 -22.6133 506.4962)" style="fill:#E6E7E9;" cx="250" cy="264.915" rx="113.084" ry="113.085"/>
		
			<ellipse transform="matrix(0.0484 -0.9988 0.9988 0.0484 -26.4816 501.5905)" style="fill:#E6E6E8;" cx="250" cy="264.693" rx="113.084" ry="113.085"/>
		
			<ellipse transform="matrix(0.0313 -0.9995 0.9995 0.0313 -22.1706 506.0671)" style="fill:#E6E6E8;" cx="250" cy="264.472" rx="113.084" ry="113.085"/>
		
			<ellipse transform="matrix(0.0484 -0.9988 0.9988 0.0484 -26.0392 501.169)" style="fill:#E5E5E7;" cx="250" cy="264.25" rx="113.084" ry="113.085"/>
		
			<ellipse transform="matrix(0.0313 -0.9995 0.9995 0.0313 -21.728 505.6381)" style="fill:#E5E5E7;" cx="250" cy="264.029" rx="113.084" ry="113.085"/>
		
			<ellipse transform="matrix(0.0173 -0.9999 0.9999 0.0173 -18.0929 509.2058)" style="fill:#E4E5E7;" cx="250" cy="263.807" rx="113.084" ry="113.085"/>
		
			<ellipse transform="matrix(0.0313 -0.9995 0.9995 0.0313 -21.2853 505.2091)" style="fill:#E4E4E6;" cx="250" cy="263.586" rx="113.084" ry="113.085"/>
		
			<ellipse transform="matrix(0.0173 -0.9999 0.9999 0.0173 -17.6501 508.7706)" style="fill:#E3E4E6;" cx="250" cy="263.364" rx="113.084" ry="113.085"/>
		<circle style="fill:#E3E3E5;" cx="250" cy="263.143" r="113.085"/>
		
			<ellipse transform="matrix(0.0313 -0.9995 0.9995 0.0313 -20.6212 504.5655)" style="fill:#E2E3E5;" cx="250" cy="262.921" rx="113.084" ry="113.085"/>
		<circle style="fill:#E2E2E5;" cx="250" cy="262.7" r="113.085"/>
		
			<ellipse transform="matrix(0.0313 -0.9995 0.9995 0.0313 -20.1785 504.1364)" style="fill:#E1E2E4;" cx="250" cy="262.479" rx="113.084" ry="113.085"/>
		
			<ellipse transform="matrix(0.0173 -0.9999 0.9999 0.0173 -16.543 507.6824)" style="fill:#E1E1E4;" cx="250" cy="262.257" rx="113.084" ry="113.085"/>
		<circle style="fill:#E0E1E3;" cx="250" cy="262.036" r="113.085"/>
		
			<ellipse transform="matrix(0.0173 -0.9999 0.9999 0.0173 -16.1001 507.2472)" style="fill:#E0E0E3;" cx="250" cy="261.814" rx="113.084" ry="113.085"/>
		<circle style="fill:#DFE0E2;" cx="250" cy="261.593" r="113.085"/>
		
			<ellipse transform="matrix(0.0173 -0.9999 0.9999 0.0173 -15.6573 506.812)" style="fill:#DFE0E2;" cx="250" cy="261.371" rx="113.084" ry="113.085"/>
		<circle style="fill:#DFDFE2;" cx="250" cy="261.15" r="113.085"/>
		<circle style="fill:#DEDFE1;" cx="250" cy="260.928" r="113.085"/>
		<circle style="fill:#DEDEE1;" cx="250" cy="260.707" r="113.085"/>
		<circle style="fill:#DDDEE0;" cx="250" cy="260.485" r="113.085"/>
		
			<ellipse transform="matrix(0.9998 -0.0186 0.0186 0.9998 -4.7945 4.6919)" style="fill:#DDDDE0;" cx="250" cy="260.264" rx="113.085" ry="113.084"/>
		<circle style="fill:#DCDDE0;" cx="250" cy="260.043" r="113.085"/>
		
			<ellipse transform="matrix(0.9998 -0.0186 0.0186 0.9998 -4.7863 4.6918)" style="fill:#DCDCDF;" cx="250" cy="259.821" rx="113.085" ry="113.084"/>
		<circle style="fill:#DBDCDF;" cx="250" cy="259.6" r="113.085"/>
		
			<ellipse transform="matrix(0.9998 -0.0186 0.0186 0.9998 -4.7781 4.6918)" style="fill:#DBDBDE;" cx="250" cy="259.378" rx="113.085" ry="113.084"/>
		
			<ellipse transform="matrix(0.9994 -0.0358 0.0358 0.9994 -9.1156 9.1141)" style="fill:#DADBDE;" cx="250" cy="259.157" rx="113.085" ry="113.084"/>
		
			<ellipse transform="matrix(0.9998 -0.0186 0.0186 0.9998 -4.7698 4.6917)" style="fill:#DADADE;" cx="250" cy="258.935" rx="113.085" ry="113.084"/>
		
			<ellipse transform="matrix(0.9994 -0.0358 0.0358 0.9994 -9.0997 9.1138)" style="fill:#D9DADD;" cx="250" cy="258.714" rx="113.085" ry="113.084"/>
		
			<ellipse transform="matrix(0.9994 -0.0358 0.0358 0.9994 -9.0918 9.1137)" style="fill:#D9DADD;" cx="250" cy="258.492" rx="113.085" ry="113.084"/>
		
			<ellipse transform="matrix(0.9994 -0.0358 0.0358 0.9994 -9.0839 9.1135)" style="fill:#D8D9DC;" cx="250" cy="258.271" rx="113.085" ry="113.084"/>
		
			<ellipse transform="matrix(0.9994 -0.0358 0.0358 0.9994 -9.0759 9.1134)" style="fill:#D8D9DC;" cx="250" cy="258.049" rx="113.085" ry="113.084"/>
		
			<ellipse transform="matrix(0.9998 -0.0186 0.0186 0.9998 -4.7493 4.6915)" style="fill:#D7D8DC;" cx="250" cy="257.828" rx="113.085" ry="113.084"/>
		
			<ellipse transform="matrix(0.9994 -0.0358 0.0358 0.9994 -9.0601 9.1131)" style="fill:#D7D8DB;" cx="250" cy="257.606" rx="113.085" ry="113.084"/>
		
			<ellipse transform="matrix(0.9982 -0.06 0.06 0.9982 -14.9807 15.4506)" style="fill:#D7D7DB;" cx="250" cy="257.385" rx="113.085" ry="113.084"/>
		
			<ellipse transform="matrix(0.9994 -0.0358 0.0358 0.9994 -9.0442 9.1128)" style="fill:#D6D7DA;" cx="250" cy="257.164" rx="113.085" ry="113.084"/>
		
			<ellipse transform="matrix(0.9982 -0.06 0.06 0.9982 -14.9542 15.4498)" style="fill:#D6D6DA;" cx="250" cy="256.942" rx="113.085" ry="113.084"/>
		
			<ellipse transform="matrix(0.9971 -0.0766 0.0766 0.9971 -18.926 19.8995)" style="fill:#D5D6DA;" cx="250" cy="256.721" rx="113.085" ry="113.084"/>
		
			<ellipse transform="matrix(0.9994 -0.0358 0.0358 0.9994 -9.0204 9.1124)" style="fill:#D5D5D9;" cx="250" cy="256.499" rx="113.085" ry="113.084"/>
		
			<ellipse transform="matrix(0.9971 -0.0766 0.0766 0.9971 -18.8921 19.8982)" style="fill:#D4D5D9;" cx="250" cy="256.278" rx="113.085" ry="113.084"/>
		
			<ellipse transform="matrix(0.9994 -0.0358 0.0358 0.9994 -9.0046 9.1121)" style="fill:#D4D5D8;" cx="250" cy="256.056" rx="113.085" ry="113.084"/>
		
			<ellipse transform="matrix(0.9982 -0.06 0.06 0.9982 -14.8878 15.4478)" style="fill:#D3D4D8;" cx="250" cy="255.835" rx="113.085" ry="113.084"/>
		
			<ellipse transform="matrix(0.9971 -0.0766 0.0766 0.9971 -18.8412 19.8962)" style="fill:#D3D4D8;" cx="250" cy="255.613" rx="113.085" ry="113.084"/>
		
			<ellipse transform="matrix(0.9982 -0.06 0.06 0.9982 -14.8612 15.4471)" style="fill:#D2D3D7;" cx="250" cy="255.392" rx="113.085" ry="113.084"/>
		
			<ellipse transform="matrix(0.9971 -0.0766 0.0766 0.9971 -18.8073 19.8949)" style="fill:#D2D3D7;" cx="250" cy="255.17" rx="113.085" ry="113.084"/>
		
			<ellipse transform="matrix(0.9942 -0.1073 0.1073 0.9942 -25.9223 28.3087)" style="fill:#D1D2D6;" cx="250" cy="254.949" rx="113.085" ry="113.084"/>
		
			<ellipse transform="matrix(0.9971 -0.0766 0.0766 0.9971 -18.7734 19.8936)" style="fill:#D1D2D6;" cx="250" cy="254.727" rx="113.085" ry="113.084"/>
		
			<ellipse transform="matrix(0.9942 -0.1073 0.1073 0.9942 -25.8748 28.3061)" style="fill:#D0D1D5;" cx="250" cy="254.506" rx="113.085" ry="113.084"/>
		
			<ellipse transform="matrix(0.9971 -0.0766 0.0766 0.9971 -18.7395 19.8923)" style="fill:#D0D1D5;" cx="250" cy="254.285" rx="113.085" ry="113.084"/>
		
			<ellipse transform="matrix(0.9971 -0.0766 0.0766 0.9971 -18.7225 19.8917)" style="fill:#CFD0D5;" cx="250" cy="254.063" rx="113.085" ry="113.084"/>
		
			<ellipse transform="matrix(0.9924 -0.1227 0.1227 0.9924 -29.2669 32.6052)" style="fill:#CFD0D4;" cx="250" cy="253.842" rx="113.085" ry="113.084"/>
		
			<ellipse transform="matrix(0.9971 -0.0766 0.0766 0.9971 -18.6886 19.8904)" style="fill:#CFCFD4;" cx="250" cy="253.62" rx="113.085" ry="113.084"/>
		
			<ellipse transform="matrix(0.9942 -0.1073 0.1073 0.9942 -25.7559 28.2997)" style="fill:#CECFD3;" cx="250" cy="253.399" rx="113.085" ry="113.084"/>
		
			<ellipse transform="matrix(0.9924 -0.1227 0.1227 0.9924 -29.1853 32.6002)" style="fill:#CECFD3;" cx="250" cy="253.177" rx="113.085" ry="113.084"/>
		
			<ellipse transform="matrix(0.9942 -0.1073 0.1073 0.9942 -25.7084 28.2972)" style="fill:#CDCED3;" cx="250" cy="252.956" rx="113.085" ry="113.084"/>
		
			<ellipse transform="matrix(0.9924 -0.1227 0.1227 0.9924 -29.131 32.5968)" style="fill:#CDCED2;" cx="250" cy="252.734" rx="113.085" ry="113.084"/>
		
			<ellipse transform="matrix(0.9942 -0.1073 0.1073 0.9942 -25.6608 28.2946)" style="fill:#CCCDD2;" cx="250" cy="252.513" rx="113.085" ry="113.084"/>
		
			<ellipse transform="matrix(0.9924 -0.1227 0.1227 0.9924 -29.0766 32.5935)" style="fill:#CCCDD1;" cx="250" cy="252.291" rx="113.085" ry="113.084"/>
		
			<ellipse transform="matrix(0.9924 -0.1227 0.1227 0.9924 -29.0494 32.5918)" style="fill:#CBCCD1;" cx="250" cy="252.07" rx="113.085" ry="113.084"/>
		
			<ellipse transform="matrix(0.9924 -0.1227 0.1227 0.9924 -29.0222 32.5901)" style="fill:#CBCCD1;" cx="250" cy="251.849" rx="113.085" ry="113.084"/>
		
			<ellipse transform="matrix(0.9924 -0.1227 0.1227 0.9924 -28.9951 32.5884)" style="fill:#CACBD0;" cx="250" cy="251.627" rx="113.085" ry="113.084"/>
		
			<ellipse transform="matrix(0.9942 -0.1073 0.1073 0.9942 -25.542 28.2882)" style="fill:#CACBD0;" cx="250" cy="251.406" rx="113.085" ry="113.084"/>
		
			<ellipse transform="matrix(0.9924 -0.1227 0.1227 0.9924 -28.9407 32.5851)" style="fill:#C9CACF;" cx="250" cy="251.184" rx="113.085" ry="113.084"/>
		
			<ellipse transform="matrix(0.987 -0.161 0.161 0.987 -37.1422 43.5221)" style="fill:#C9CACF;" cx="250" cy="250.963" rx="113.085" ry="113.084"/>
		
			<ellipse transform="matrix(0.9924 -0.1227 0.1227 0.9924 -28.8863 32.5817)" style="fill:#C8CACF;" cx="250" cy="250.741" rx="113.085" ry="113.084"/>
		
			<ellipse transform="matrix(0.987 -0.161 0.161 0.987 -37.0709 43.5163)" style="fill:#C8C9CE;" cx="250" cy="250.52" rx="113.085" ry="113.084"/>
		
			<ellipse transform="matrix(0.9847 -0.1743 0.1743 0.9847 -39.8063 47.4152)" style="fill:#C7C9CE;" cx="250" cy="250.298" rx="113.085" ry="113.084"/>
		
			<ellipse transform="matrix(0.987 -0.161 0.161 0.987 -36.9996 43.5105)" style="fill:#C7C8CD;" cx="250" cy="250.077" rx="113.085" ry="113.084"/>
		
			<ellipse transform="matrix(0.9847 -0.1743 0.1743 0.9847 -39.729 47.4084)" style="fill:#B8B8B8;" cx="250" cy="249.855" rx="113.085" ry="113.084"/>
	</g>
	<g>
		<g>
			<circle style="fill:#66ACDD;" cx="250" cy="250" r="113.262"/>
			<g>
				<path style="fill:#B5D1DB;" d="M207.424,264.957l12.129,37.1c0.862,2.637,4.108,3.578,6.247,1.812l36.224-29.903
					c0,0-38.493-15.015-38.493-14.196C223.531,260.589,207.424,264.957,207.424,264.957z"/>
				<path style="fill:#FFFFFF;" d="M302.997,193.652c-23.656,9.357-100.013,40.646-128.913,52.501
					c-3.816,1.565-3.587,7.039,0.342,8.291l32.997,10.511l12.091,36.982c0.486,1.487,1.714,2.446,3.084,2.704
					c1.112,0.209,2.753-29.949,2.753-29.949s34.688,25.725,51.142,37.875c4.054,2.993,9.842,0.742,10.802-4.204
					c4.901-25.261,17.157-88.425,21.346-110.018C309.272,195.099,306.073,192.436,302.997,193.652z"/>
				<path style="fill:#D6E2EA;" d="M222.598,304.643c1.112,0.209,2.752-29.949,2.752-29.949l56.988-53.529
					c0.385-0.362-0.075-0.972-0.529-0.701l-74.387,44.493l12.091,36.982C220,303.426,221.228,304.385,222.598,304.643z"/>
			</g>
		</g>
		
			<linearGradient id="SVGID_1_" gradientUnits="userSpaceOnUse" x1="756.144" y1="869.4037" x2="982.6676" y2="869.4037" gradientTransform="matrix(0 1 -1 0 1119.4037 -619.4058)">
			<stop  offset="0" style="stop-color:#FFFFFF"/>
			<stop  offset="0.2606" style="stop-color:#FFFFFF;stop-opacity:0.7394"/>
			<stop  offset="1" style="stop-color:#FFFFFF;stop-opacity:0"/>
		</linearGradient>
		<circle style="opacity:0.5;fill:url(#SVGID_1_);" cx="250" cy="250" r="113.262"/>
	</g>
</g>
<g id="DESIGNED_BY_FREEPIK_1_">
	<g>
		<g id="XMLID_29_">
			<g id="XMLID_48_">
				<path id="XMLID_56_" style="fill:#A5B7C6;" d="M260.104,468.141c-0.432,0.443-0.803,0.931-1.108,1.453l-0.465-0.241
					c-0.067-0.298-0.349-0.503-0.659-0.466c-0.331,0.039-0.568,0.339-0.529,0.67c0.039,0.331,0.339,0.568,0.67,0.529
					c0.066-0.008,0.127-0.026,0.184-0.052l0.451,0.234c-0.251,0.554-0.433,1.139-0.539,1.744l0.747,0.132
					c0.23-1.306,0.85-2.507,1.792-3.473L260.104,468.141z"/>
				<path id="XMLID_55_" style="fill:#A5B7C6;" d="M265.592,465.839c-0.171,0-0.341,0.006-0.51,0.017l-0.074-0.626
					c0.188-0.149,0.296-0.389,0.266-0.645c-0.046-0.393-0.402-0.674-0.795-0.628c-0.393,0.046-0.674,0.402-0.628,0.795
					c0.03,0.254,0.189,0.461,0.404,0.564l0.074,0.624c-0.714,0.116-1.403,0.332-2.06,0.646l0.327,0.684
					c0.934-0.447,1.942-0.673,2.995-0.673c0.496,0,0.993,0.053,1.475,0.158l0.161-0.741
					C266.692,465.897,266.142,465.839,265.592,465.839z"/>
				<path id="XMLID_54_" style="fill:#A5B7C6;" d="M272.194,468.386c0.331-0.04,0.566-0.341,0.526-0.672
					c-0.04-0.331-0.341-0.566-0.672-0.526c-0.309,0.038-0.535,0.304-0.53,0.609l-0.416,0.363c-0.418-0.43-0.889-0.813-1.408-1.139
					l-0.404,0.641c1.134,0.715,2.021,1.726,2.563,2.925l0.69-0.313c-0.251-0.554-0.567-1.072-0.942-1.545l0.402-0.351
					C272.065,468.391,272.129,468.394,272.194,468.386z"/>
				<path id="XMLID_53_" style="fill:#A5B7C6;" d="M265.044,476.047c-0.386,0.023-0.775,0.035-1.157,0.035
					c-0.88,0-1.733-0.061-2.478-0.179c-0.39-0.062-0.846-0.155-1.27-0.292c1.046,1.861,3.069,3.125,5.388,3.125
					c2.855,0,5.262-1.916,5.95-4.504c-0.682,0.449-1.505,0.825-2.459,1.123C267.839,475.722,266.463,475.962,265.044,476.047z"/>
				<path id="XMLID_49_" style="fill:#A5B7C6;" d="M265.592,467.355c-3.352,0-6.08,2.666-6.08,5.943
					c0,0.426,0.046,0.849,0.137,1.261c0.673,0.483,2.706,0.89,5.348,0.731c2.879-0.173,5.297-0.957,6.672-2.159
					c-0.006-0.195-0.021-0.39-0.045-0.582C271.244,469.588,268.65,467.355,265.592,467.355z M263.432,473.87
					c-1.02,0-1.85-0.83-1.85-1.85c0-1.02,0.83-1.85,1.85-1.85c1.02,0,1.85,0.83,1.85,1.85
					C265.282,473.04,264.452,473.87,263.432,473.87z M268.17,472.961c-0.75,0-1.36-0.61-1.36-1.36s0.61-1.361,1.36-1.361
					c0.75,0,1.361,0.61,1.361,1.361S268.92,472.961,268.17,472.961z"/>
			</g>
			<path id="XMLID_46_" style="fill:#A5B7C6;" d="M281.595,469.222c-0.295-0.116-0.805-0.309-1.382-0.237
				c-0.551,0.069-0.844,0.341-0.844,1.007v0.866h2.228v1.717h-2.228v5.455h-1.932v-5.455h-1.34v-1.717h1.34v-0.888
				c0-1.68,0.896-2.783,2.568-2.783c0.643,0,1.157,0.122,1.59,0.308L281.595,469.222z"/>
			<path id="XMLID_44_" style="fill:#A5B7C6;" d="M286.298,472.554c-0.177-0.03-0.358-0.046-0.526-0.046
				c-0.896,0-1.51,0.548-1.51,1.613v3.908h-1.932v-7.172h1.873v0.785c0.451-0.673,1.14-0.977,2.021-0.977
				c0.414,0,0.848,0.128,1.094,0.337L286.298,472.554z"/>
			<path id="XMLID_41_" style="fill:#A5B7C6;" d="M293.965,474.432c0,0.222-0.015,0.489-0.037,0.651h-5.085
				c0.207,1.036,0.933,1.488,1.843,1.488c0.622,0,1.295-0.252,1.813-0.688l1.133,1.243c-0.814,0.748-1.85,1.088-3.057,1.088
				c-2.198,0-3.723-1.495-3.723-3.753c0-2.258,1.48-3.797,3.627-3.797C292.544,470.665,293.958,472.197,293.965,474.432z
				 M288.851,473.766h3.175c-0.177-0.918-0.733-1.436-1.562-1.436C289.554,472.33,289.021,472.878,288.851,473.766z"/>
			<path id="XMLID_38_" style="fill:#A5B7C6;" d="M301.618,474.432c0,0.222-0.015,0.489-0.037,0.651h-5.085
				c0.207,1.036,0.933,1.488,1.843,1.488c0.622,0,1.295-0.252,1.814-0.688l1.132,1.243c-0.814,0.748-1.85,1.088-3.057,1.088
				c-2.198,0-3.723-1.495-3.723-3.753c0-2.258,1.48-3.797,3.627-3.797C300.197,470.665,301.611,472.197,301.618,474.432z
				 M296.504,473.766h3.175c-0.178-0.918-0.733-1.436-1.562-1.436C297.207,472.33,296.674,472.878,296.504,473.766z"/>
			<path id="XMLID_35_" style="fill:#A5B7C6;" d="M309.964,474.44c0,2.154-1.495,3.775-3.471,3.775
				c-0.962,0-1.643-0.378-2.109-0.933v3.708h-1.924v-10.133h1.887v0.792c0.466-0.585,1.155-0.984,2.139-0.984
				C308.469,470.665,309.964,472.286,309.964,474.44z M304.287,474.44c0,1.132,0.748,1.976,1.843,1.976
				c1.14,0,1.85-0.881,1.85-1.976c0-1.095-0.71-1.976-1.85-1.976C305.035,472.463,304.287,473.307,304.287,474.44z"/>
			<path id="XMLID_32_" style="fill:#A5B7C6;" d="M313.068,468.511c0,0.696-0.54,1.229-1.236,1.229
				c-0.696,0-1.229-0.533-1.229-1.229c0-0.696,0.533-1.243,1.229-1.243C312.527,467.267,313.068,467.815,313.068,468.511z
				 M312.809,478.029h-1.932v-7.172h1.932V478.029z"/>
			<path id="XMLID_30_" style="fill:#A5B7C6;" d="M316.032,473.411l2.701-2.554h2.368l-3.479,3.375l3.501,3.797h-2.376l-2.716-2.901
				v2.901H314.1v-10.658h1.932V473.411z"/>
		</g>
		<g>
			<path style="fill:#A5B7C6;" d="M184.412,477.964v-1.055c-0.527,0.718-1.391,1.23-2.387,1.23c-1.846,0-3.149-1.406-3.149-3.706
				c0-2.256,1.289-3.721,3.149-3.721c0.952,0,1.816,0.469,2.387,1.245v-3.765h1.099v9.77H184.412z M184.412,476.045v-3.208
				c-0.395-0.615-1.245-1.143-2.124-1.143c-1.421,0-2.27,1.172-2.27,2.739c0,1.567,0.85,2.724,2.27,2.724
				C183.168,477.159,184.017,476.661,184.412,476.045z"/>
			<path style="fill:#A5B7C6;" d="M186.932,474.419c0-2.051,1.465-3.706,3.486-3.706c2.139,0,3.398,1.67,3.398,3.794v0.279h-5.727
				c0.088,1.333,1.025,2.446,2.549,2.446c0.805,0,1.626-0.322,2.182-0.894l0.527,0.718c-0.703,0.703-1.655,1.084-2.812,1.084
				C188.44,478.14,186.932,476.631,186.932,474.419z M190.403,471.622c-1.509,0-2.256,1.274-2.314,2.358h4.643
				C192.718,472.925,192.015,471.622,190.403,471.622z"/>
			<path style="fill:#A5B7C6;" d="M194.607,477.027l0.571-0.791c0.469,0.542,1.362,1.011,2.329,1.011c1.084,0,1.67-0.513,1.67-1.216
				c0-1.714-4.38-0.659-4.38-3.281c0-1.098,0.952-2.036,2.636-2.036c1.201,0,2.051,0.454,2.622,1.026l-0.513,0.762
				c-0.424-0.513-1.201-0.894-2.109-0.894c-0.967,0-1.567,0.483-1.567,1.113c0,1.552,4.38,0.527,4.38,3.281
				c0,1.187-0.952,2.138-2.783,2.138C196.306,478.14,195.325,477.788,194.607,477.027z"/>
			<path style="fill:#A5B7C6;" d="M201.477,469.146c0-0.41,0.337-0.747,0.732-0.747c0.41,0,0.747,0.337,0.747,0.747
				c0,0.41-0.337,0.732-0.747,0.732C201.814,469.878,201.477,469.556,201.477,469.146z M201.667,477.964v-7.075h1.099v7.075H201.667
				z"/>
			<path style="fill:#A5B7C6;" d="M204.582,479.78l0.556-0.82c0.586,0.703,1.289,0.967,2.3,0.967c1.172,0,2.27-0.571,2.27-2.124
				v-1.011c-0.513,0.718-1.377,1.26-2.373,1.26c-1.845,0-3.149-1.377-3.149-3.662c0-2.27,1.289-3.677,3.149-3.677
				c0.952,0,1.802,0.469,2.373,1.245v-1.069h1.098v6.87c0,2.344-1.641,3.076-3.369,3.076
				C206.237,480.835,205.417,480.601,204.582,479.78z M209.709,475.928v-3.091c-0.381-0.615-1.23-1.143-2.109-1.143
				c-1.421,0-2.27,1.128-2.27,2.695c0,1.553,0.849,2.695,2.27,2.695C208.478,477.085,209.328,476.543,209.709,475.928z"/>
			<path style="fill:#A5B7C6;" d="M217.413,477.964v-4.629c0-1.245-0.63-1.641-1.582-1.641c-0.865,0-1.685,0.527-2.095,1.099v5.17
				h-1.099v-7.075h1.099v1.025c0.498-0.586,1.464-1.201,2.519-1.201c1.48,0,2.256,0.747,2.256,2.285v4.966H217.413z"/>
			<path style="fill:#A5B7C6;" d="M219.932,474.419c0-2.051,1.465-3.706,3.486-3.706c2.139,0,3.398,1.67,3.398,3.794v0.279h-5.727
				c0.088,1.333,1.025,2.446,2.549,2.446c0.806,0,1.626-0.322,2.183-0.894l0.527,0.718c-0.703,0.703-1.655,1.084-2.812,1.084
				C221.441,478.14,219.932,476.631,219.932,474.419z M223.404,471.622c-1.509,0-2.256,1.274-2.314,2.358h4.643
				C225.718,472.925,225.015,471.622,223.404,471.622z"/>
			<path style="fill:#A5B7C6;" d="M233.35,477.964v-1.055c-0.527,0.718-1.392,1.23-2.388,1.23c-1.846,0-3.149-1.406-3.149-3.706
				c0-2.256,1.289-3.721,3.149-3.721c0.952,0,1.817,0.469,2.388,1.245v-3.765h1.098v9.77H233.35z M233.35,476.045v-3.208
				c-0.396-0.615-1.245-1.143-2.124-1.143c-1.421,0-2.27,1.172-2.27,2.739c0,1.567,0.849,2.724,2.27,2.724
				C232.105,477.159,232.954,476.661,233.35,476.045z"/>
			<path style="fill:#A5B7C6;" d="M239.692,477.964v-9.77h1.098v3.765c0.572-0.776,1.421-1.245,2.388-1.245
				c1.845,0,3.149,1.465,3.149,3.721c0,2.299-1.304,3.706-3.149,3.706c-0.996,0-1.86-0.513-2.388-1.23v1.055H239.692z
				 M242.9,477.159c1.436,0,2.285-1.157,2.285-2.724c0-1.568-0.85-2.739-2.285-2.739c-0.864,0-1.728,0.527-2.109,1.143v3.208
				C241.171,476.661,242.036,477.159,242.9,477.159z"/>
			<path style="fill:#A5B7C6;" d="M247.528,479.737c0.161,0.073,0.425,0.117,0.601,0.117c0.483,0,0.805-0.161,1.055-0.747
				l0.469-1.069l-2.959-7.148h1.187l2.358,5.8l2.344-5.8h1.201l-3.545,8.51c-0.425,1.025-1.143,1.421-2.08,1.435
				c-0.234,0-0.601-0.044-0.805-0.103L247.528,479.737z"/>
		</g>
	</g>
</g>
</svg>
